<svg width="18" height="18" viewBox="0 0 18 18" fill="none" xmlns="http://www.w3.org/2000/svg">
<path d="M2.87904 15.192C1.66988 13.9829 1.66988 12.0171 2.87904 10.808L5.70746 7.97954L4.36396 6.63604L1.53553 9.46447C-0.416081 11.4161 -0.416081 14.5839 1.53553 16.5355C3.48715 18.4871 6.65499 18.4871 8.6066 16.5355L11.435 13.7071L10.0915 12.3636L7.2631 15.192C6.05395 16.4012 4.08819 16.4012 2.87904 15.192ZM6.48528 13L12.1421 7.34315L10.7279 5.92893L5.07107 11.5858L6.48528 13ZM8.6066 2.3934L5.77817 5.22183L7.12168 6.56533L9.9501 3.7369C11.1593 2.52775 13.125 2.52775 14.3342 3.7369C15.5433 4.94605 15.5433 6.91181 14.3342 8.12096L11.5057 10.9494L12.8492 12.2929L15.6777 9.46447C17.6293 7.51285 17.6293 4.34501 15.6777 2.3934C13.7261 0.441784 10.5582 0.441784 8.6066 2.3934Z" fill="white"/>
</svg>
